<?xml version="1.0" encoding="UTF-8"?>
<svg xmlns="http://www.w3.org/2000/svg" aria-hidden="true" style="display:none">
  <!-- simple, clean icons -->

  <symbol id="camera" viewBox="0 0 24 24">
    <path d="M9 4a2 2 0 0 0-1.789 1.106L6.618 6H5a3 3 0 0 0-3 3v8a3 3 0 0 0 3 3h14a3 3 0 0 0 3-3V9a3 3 0 0 0-3-3h-1.618l-.593-1.106A2 2 0 0 0 15 4H9zM12 9a5 5 0 1 1 0 10 5 5 0 0 1 0-10z"/>
  </symbol>

  <symbol id="heart" viewBox="0 0 24 24">
    <path d="M12 21s-7.5-4.6-9.6-8.2C.8 10.1 2 6.5 5.6 6c2.2-.3 3.8.8 4.4 2 .6-1.2 2.2-2.3 4.4-2 3.6.5 4.8 4.1 3.2 6.8C19.5 16.4 12 21 12 21z"/>
  </symbol>

  <symbol id="film" viewBox="0 0 24 24">
    <path d="M3 5h18v14H3zM7 5v14M17 5v14M3 9h4M3 15h4M17 9h4M17 15h4" stroke="currentColor" fill="none" stroke-width="2"/>
  </symbol>

  <symbol id="fork-knife" viewBox="0 0 24 24">
    <path d="M6 2v8M9 2v8M6 10v12M9 10v12M15 2l2 5h-4l2-5zm0 7v13" stroke="currentColor" fill="none" stroke-width="2" stroke-linecap="round"/>
  </symbol>

  <symbol id="walk" viewBox="0 0 24 24">
    <path d="M13 5a2 2 0 1 1-4 0 2 2 0 0 1 4 0zM9 22l2-6 2 2 2 4M6 12l4 1 2-3 4 2" stroke="currentColor" fill="none" stroke-width="2" stroke-linecap="round"/>
  </symbol>

  <symbol id="check" viewBox="0 0 24 24">
    <path d="M20 6L9 17l-5-5" stroke="currentColor" stroke-width="2" fill="none" stroke-linecap="round"/>
  </symbol>

  <symbol id="back" viewBox="0 0 24 24">
    <path d="M15 18l-6-6 6-6" stroke="currentColor" stroke-width="2" fill="none" stroke-linecap="round"/>
  </symbol>

  <symbol id="filter" viewBox="0 0 24 24">
    <path d="M3 4h18M6 10h12M9 16h6" stroke="currentColor" stroke-width="2" fill="none" stroke-linecap="round"/>
  </symbol>

  <symbol id="download" viewBox="0 0 24 24">
    <path d="M12 3v12m0 0l-4-4m4 4l4-4M5 21h14" stroke="currentColor" stroke-width="2" fill="none" stroke-linecap="round"/>
  </symbol>

  <symbol id="trash" viewBox="0 0 24 24">
    <path d="M4 7h16M9 7v12m6-12v12M6 7l1 14h10l1-14M9 4h6l1 2H8l1-2z" stroke="currentColor" stroke-width="2" fill="none" stroke-linecap="round"/>
  </symbol>
</svg>
